<?xml version="1.0" standalone="no"?>
<!DOCTYPE svg PUBLIC "-//W3C//DTD SVG 20010904//EN"
 "http://www.w3.org/TR/2001/REC-SVG-20010904/DTD/svg10.dtd">
<svg version="1.0" xmlns="http://www.w3.org/2000/svg"
 width="800.000000pt" height="800.000000pt" viewBox="0 0 800.000000 800.000000"
 preserveAspectRatio="xMidYMid meet">
<metadata>
Created by potrace 1.14, written by Peter Selinger 2001-2017
</metadata>
<g transform="translate(0.000000,800.000000) scale(0.100000,-0.100000)"
fill="#000000" stroke="none">
<path d="M4297 7633 c34 -53 181 -219 339 -382 156 -160 224 -243 206 -249 -5
-1 -71 27 -147 63 -77 36 -177 79 -224 96 -215 76 -555 144 -971 194 -118 14
-236 28 -262 32 -27 3 -48 2 -48 -2 0 -39 229 -230 490 -408 79 -54 89 -73 33
-63 -99 18 -192 25 -350 26 -273 0 -538 -52 -886 -175 -236 -83 -300 -110
-427 -180 -198 -110 -289 -145 -496 -192 -103 -23 -141 -27 -291 -27 -94 -1
-174 -4 -178 -8 -13 -13 252 -205 320 -232 57 -22 178 -53 262 -66 40 -7 75
-15 77 -19 3 -4 -21 -26 -53 -49 -78 -57 -249 -230 -317 -322 -118 -159 -196
-309 -247 -480 -64 -211 -75 -321 -60 -603 l6 -128 34 33 c21 19 57 80 90 147
128 268 369 591 439 591 20 0 19 -4 -30 -84 -73 -121 -79 -145 -85 -376 -3
-113 -4 -223 -1 -245 5 -38 7 -40 38 -37 41 4 45 -7 29 -82 l-12 -58 -82 -27
c-77 -25 -123 -55 -144 -92 -4 -9 -13 -79 -19 -155 -5 -77 -18 -222 -28 -324
-21 -228 -24 -766 -4 -905 73 -514 231 -914 525 -1327 195 -275 464 -522 800
-735 258 -163 489 -262 842 -358 165 -46 530 -80 755 -71 480 18 801 100 1163
297 292 159 575 380 786 612 144 159 161 181 296 383 128 191 223 382 303 609
59 167 75 233 127 510 33 173 44 501 26 750 -7 88 -16 239 -21 335 -19 364
-22 392 -40 410 -9 9 -62 31 -117 49 l-101 32 -32 75 c-94 214 -300 498 -563
774 -59 62 -85 96 -76 99 39 12 177 192 219 285 162 356 93 797 -179 1155
-102 134 -405 412 -431 396 -7 -4 -8 -30 -4 -73 l6 -67 -63 65 c-218 224 -681
470 -1100 584 -53 14 -106 26 -118 26 -21 0 -21 -1 -4 -27z m480 -246 c404
-165 752 -454 898 -747 43 -85 76 -178 91 -258 18 -95 18 -281 0 -350 -27
-100 -85 -172 -157 -192 -34 -10 -32 -14 -30 90 1 41 -3 146 -9 233 -9 135
-15 173 -44 261 -52 154 -86 218 -197 366 -137 183 -142 189 -151 184 -4 -3
-8 0 -8 6 0 17 -43 70 -57 70 -7 0 -13 6 -13 13 0 7 -13 26 -30 42 -16 15 -28
31 -27 35 3 10 -77 71 -122 95 -29 15 -33 15 -28 2 4 -12 2 -14 -10 -10 -12 5
-14 3 -8 -8 4 -8 -24 17 -63 55 -39 38 -69 73 -66 77 2 4 -18 20 -45 35 -28
14 -52 33 -55 40 -3 8 -4 14 -2 14 2 0 62 -24 133 -53z m-973 -187 c407 -59
615 -117 836 -232 215 -112 338 -210 434 -346 76 -109 93 -147 110 -248 18
-103 22 -298 5 -274 -8 12 -9 10 -4 -8 7 -25 -31 -116 -67 -162 -13 -16 -31
-41 -41 -55 -11 -15 -20 -25 -22 -23 -2 2 -8 62 -15 133 -13 154 -33 223 -105
370 -43 86 -72 130 -137 202 -86 95 -110 116 -252 221 -83 62 -160 107 -296
174 -36 17 -81 42 -100 54 -19 13 -44 25 -55 26 -11 2 -24 6 -30 10 -5 3 -37
11 -70 18 -33 7 -66 19 -74 26 -11 10 -7 11 25 2 21 -5 53 -12 69 -14 33 -4
-272 86 -377 112 -37 9 -76 23 -85 30 -16 12 -15 13 11 14 15 0 123 -14 240
-30z m-64 -403 c163 -37 258 -70 379 -132 129 -67 220 -133 327 -240 88 -87
137 -165 175 -280 21 -61 24 -88 23 -215 0 -155 -10 -200 -43 -200 -11 0 -22
6 -25 13 -5 10 -7 10 -12 0 -3 -8 -25 -13 -55 -13 -48 0 -49 0 -50 -32 -1 -26
-3 -28 -5 -8 -24 165 -40 204 -153 374 -43 66 -266 237 -329 253 -13 3 -28 16
-33 30 -13 35 -91 66 -159 62 -30 -1 -91 -3 -135 -3 -44 1 -71 -1 -60 -3 11
-2 39 -10 62 -18 26 -8 45 -10 48 -4 4 5 12 9 18 9 9 0 8 -3 -1 -8 -9 -6 1
-16 33 -32 25 -13 43 -25 41 -27 -2 -2 -41 10 -87 27 -46 16 -127 41 -179 55
-52 13 -91 24 -86 25 11 0 -34 40 -46 40 -4 0 -8 6 -8 13 0 10 -18 13 -65 14
-57 0 -65 -2 -65 -18 0 -11 -6 -20 -12 -20 -7 -1 -30 -3 -51 -5 -20 -2 -45 -8
-55 -13 -14 -8 -13 -10 11 -16 15 -4 27 -13 27 -21 0 -8 8 -14 18 -14 22 0
143 -41 195 -66 20 -10 37 -24 37 -31 0 -15 -16 -17 -25 -3 -3 6 -32 9 -63 9
-57 -1 -57 -1 -17 -10 22 -4 71 -11 108 -14 38 -3 76 -9 85 -14 9 -5 75 -35
146 -67 112 -51 189 -100 256 -163 18 -17 20 -101 3 -101 -16 0 -127 65 -143
85 -7 8 -16 15 -19 15 -4 0 -34 14 -66 32 -50 27 -56 33 -39 40 18 7 18 8 -1
6 -24 -2 -285 82 -285 91 0 4 15 15 33 24 31 15 31 16 7 17 -20 0 -22 2 -10
10 11 7 -2 10 -45 10 -33 1 -109 4 -170 7 -135 7 -112 7 -280 -6 -150 -13
-178 -18 -170 -31 8 -12 -127 -23 -187 -15 -62 9 -85 17 -116 44 -22 19 -22
21 -5 40 10 12 28 21 42 21 13 0 22 3 18 6 -12 12 -276 -31 -317 -51 -14 -7
-52 -16 -85 -20 -33 -4 -77 -14 -97 -21 -21 -7 -38 -10 -38 -7 0 4 -6 -1 -14
-12 -14 -19 -22 -21 -151 -29 -77 -5 -78 -5 -26 6 61 11 56 18 -28 38 -33 8
-89 11 -146 8 -52 -3 -99 -2 -105 2 -23 14 443 123 666 156 93 13 264 39 379
55 153 23 260 32 395 36 179 4 250 14 250 34 0 11 -90 52 -98 44 -3 -3 -10 -1
-16 3 -6 5 -168 5 -361 1 -192 -4 -359 -5 -369 -2 -18 5 -18 6 5 18 13 7 39
16 57 20 18 4 66 22 106 40 88 41 305 108 441 136 194 40 282 48 495 45 177
-3 221 -7 320 -29z m2204 -182 c65 -98 111 -200 141 -311 28 -101 41 -194 27
-194 -11 0 -19 21 -52 130 -31 104 -86 219 -178 373 -44 73 -87 148 -97 167
-16 32 -12 30 44 -25 34 -33 86 -96 115 -140z m-2604 -415 c0 -5 -4 -10 -10
-10 -5 0 -10 5 -10 10 0 6 5 10 10 10 6 0 10 -4 10 -10z m-1035 -93 c-114 -60
-134 -83 -53 -61 99 26 315 39 451 26 67 -6 136 -16 152 -22 37 -13 61 -46 46
-64 -6 -7 -9 -15 -6 -17 2 -3 -78 -4 -178 -3 -216 3 -357 -8 -487 -38 -90 -21
-93 -22 -55 -28 22 -3 46 -9 53 -14 7 -4 19 -3 27 4 8 6 26 10 42 8 27 -3 27
-4 -12 -17 -22 -8 -56 -24 -75 -36 -19 -12 -46 -26 -60 -30 -14 -4 -50 -27
-80 -50 -30 -23 -73 -50 -95 -59 -67 -29 -130 -61 -135 -68 -3 -3 -24 -8 -47
-11 -26 -2 -53 -14 -73 -30 -17 -15 -36 -27 -41 -27 -6 0 -68 -58 -138 -130
-70 -71 -131 -130 -135 -130 -4 0 -4 10 -1 21 21 66 -63 -56 -136 -198 -42
-82 -49 -92 -44 -58 10 60 70 236 104 302 76 152 227 342 365 461 109 95 593
320 691 321 11 0 -25 -23 -80 -52z m82 -173 c-3 -3 -12 -4 -19 -1 -8 3 -5 6 6
6 11 1 17 -2 13 -5z m1972 -179 c0 -5 -6 1 -14 15 -8 14 -14 30 -14 35 0 6 6
-1 14 -15 8 -14 14 -29 14 -35z m50 -83 c18 -46 17 -130 -2 -149 -9 -9 -18
-15 -20 -12 -3 2 -7 47 -9 101 -4 75 -2 95 8 91 6 -2 17 -16 23 -31z m977 -49
c-11 -11 -19 6 -11 24 8 17 8 17 12 0 3 -10 2 -21 -1 -24z m-171 -78 c44 -12
46 -13 18 -14 -33 -1 -164 26 -173 36 -8 9 100 -6 155 -22z m-1944 -7 c43 -2
75 -6 73 -9 -2 -4 11 -10 29 -13 46 -10 182 -35 252 -47 92 -15 300 -130 412
-226 l62 -54 87 65 c151 112 317 184 584 257 194 53 251 53 425 0 72 -22 139
-43 150 -47 l20 -7 -20 16 c-20 16 -20 16 6 17 37 0 235 -102 372 -193 93 -62
152 -112 276 -235 86 -87 182 -191 213 -232 77 -102 275 -427 266 -435 -2 -1
-59 8 -128 21 -155 29 -427 68 -624 90 -190 21 -609 15 -756 -10 -193 -34
-399 -86 -540 -137 l-145 -53 -155 1 -155 1 -145 47 c-552 179 -964 214 -1525
129 -55 -8 -183 -26 -283 -40 -101 -13 -210 -31 -243 -38 -32 -8 -59 -11 -59
-7 0 12 139 240 184 300 138 187 300 362 417 452 42 32 83 64 90 71 36 34 172
128 185 128 4 0 4 -7 0 -15 -5 -14 -2 -13 24 0 17 9 30 20 30 26 0 6 -7 6 -20
-1 -30 -16 -24 6 8 27 15 11 59 34 97 52 39 18 78 37 87 42 27 14 106 23 88
10 -19 -14 -9 -14 27 0 15 6 39 13 53 15 14 2 41 8 60 14 72 19 115 28 130 24
8 -2 49 -4 91 -6z m-74 -1143 c288 -37 386 -60 598 -138 l140 -52 175 1 c192
2 178 -1 420 83 177 62 246 77 465 101 388 42 688 31 1140 -41 155 -25 544
-115 599 -139 51 -21 60 -33 52 -64 l-6 -23 -47 22 c-54 25 -102 37 -386 101
-393 87 -574 108 -922 109 -321 0 -496 -20 -735 -81 -144 -38 -158 -43 -260
-92 l-95 -47 -145 -3 c-196 -5 -300 8 -399 52 -138 60 -331 114 -519 143 -164
26 -197 28 -447 27 -298 -2 -497 -19 -695 -59 -68 -14 -177 -34 -244 -45 -115
-20 -234 -49 -375 -91 -52 -16 -66 -17 -72 -7 -11 16 -11 30 -1 45 9 15 262
83 432 117 538 106 944 131 1327 81z m2140 -102 c-20 -2 -52 -2 -70 0 -17 2 0
4 38 4 39 0 53 -2 32 -4z m-289 -20 c-10 -2 -26 -2 -35 0 -10 3 -2 5 17 5 19
0 27 -2 18 -5z m-1893 -113 c54 -16 153 -88 209 -152 54 -62 117 -179 141
-260 32 -113 36 -261 10 -373 -3 -11 -2 -14 1 -7 13 28 21 9 16 -40 -6 -68
-28 -118 -85 -194 -74 -98 -179 -158 -327 -190 -83 -18 -134 -17 -65 1 28 7
45 13 38 14 -23 2 -168 -21 -184 -30 -67 -35 -267 -27 -351 14 -74 36 -181
127 -233 198 -59 80 -84 151 -102 294 -13 99 -14 136 -4 209 23 175 86 302
202 410 79 73 136 105 212 117 75 11 474 3 522 -11z m2495 -7 c119 -59 222
-172 292 -320 93 -198 65 -502 -63 -689 -36 -53 -168 -163 -239 -200 -46 -23
-70 -28 -153 -32 -53 -2 -103 0 -110 5 -6 5 -55 10 -106 11 -150 3 -300 39
-388 93 -47 29 -126 122 -163 190 -28 53 -30 62 -20 99 7 27 8 52 1 78 -29
108 -23 272 16 397 38 124 182 294 294 348 73 36 167 46 399 44 179 -2 199 -4
240 -24z m-3907 -17 c10 -13 16 -34 15 -56 -3 -34 -5 -35 -60 -49 -93 -22
-153 -2 -163 54 -8 41 5 55 61 70 63 17 124 9 147 -19z m627 9 c0 -3 -18 -21
-40 -41 -73 -66 -163 -223 -197 -343 -20 -73 -29 -291 -14 -374 14 -79 71
-269 96 -316 9 -19 21 -48 26 -63 7 -27 6 -28 -14 -22 -43 13 -75 34 -106 69
-49 56 -98 164 -115 251 -8 43 -22 108 -30 144 -36 157 -50 270 -50 410 -1
101 3 152 12 168 18 31 66 49 237 87 147 33 195 40 195 30z m3640 -21 c129
-23 237 -54 255 -74 24 -27 28 -106 16 -285 -25 -358 -100 -629 -197 -715 -33
-28 -90 -60 -109 -60 -13 0 8 67 46 150 79 168 104 504 50 671 -27 86 -109
221 -173 286 l-52 52 40 -5 c21 -3 77 -12 124 -20z m646 5 c10 -8 14 -26 12
-53 l-3 -41 -87 1 c-97 1 -118 11 -118 55 0 50 24 62 108 56 40 -3 80 -11 88
-18z m-3194 -19 c82 -21 182 -63 205 -86 20 -20 23 -33 23 -101 -1 -80 -41
-388 -53 -400 -4 -3 -7 32 -7 78 -1 94 -16 177 -49 259 -29 70 -121 210 -164
246 -17 15 -24 25 -15 21 9 -3 36 -11 60 -17z m1322 -22 c-74 -80 -146 -206
-167 -293 -9 -33 -21 -102 -28 -154 l-12 -94 -13 49 c-23 93 -36 194 -37 298
-2 91 0 107 18 126 26 29 92 59 180 81 94 23 93 24 59 -13z m1622 -499 c-24
-223 -64 -375 -131 -510 -85 -168 -188 -238 -420 -284 -252 -50 -397 -56 -619
-25 -310 44 -503 138 -617 300 -35 51 -61 120 -44 120 2 0 20 -24 38 -52 79
-124 191 -202 380 -267 172 -59 296 -75 537 -68 199 5 296 19 403 56 159 55
273 149 332 273 49 102 101 340 120 548 3 36 9 85 12 110 l7 45 10 -43 c6 -31
4 -88 -8 -203z m-2218 45 c30 -6 32 -9 52 -103 12 -53 30 -127 40 -166 10 -38
23 -101 29 -140 14 -88 42 -164 103 -285 97 -193 174 -268 371 -363 59 -28
107 -54 107 -58 0 -4 -51 -10 -112 -13 -134 -7 -1802 -14 -1870 -8 -31 3 -48
9 -48 17 0 8 -20 17 -52 23 -52 9 -51 10 42 12 52 1 112 3 132 4 33 1 38 -2
38 -21 0 -21 5 -23 58 -24 68 -2 48 -2 161 6 286 20 562 262 660 580 12 39 24
106 27 149 3 44 16 131 29 194 14 62 25 125 25 138 0 55 14 64 99 64 43 0 92
-3 109 -6z m-454 -287 c-9 -29 -28 -75 -40 -104 -13 -28 -24 -56 -24 -62 0
-22 -105 -163 -159 -213 -110 -102 -233 -151 -496 -199 -104 -18 -145 -20
-315 -16 -282 7 -490 51 -588 124 -117 88 -171 158 -178 229 l-4 49 39 -60
c46 -71 141 -165 196 -192 124 -63 362 -106 585 -106 184 0 308 18 467 69 135
43 210 87 299 174 54 53 77 86 123 180 32 63 68 149 82 190 l24 75 3 -43 c2
-24 -4 -67 -14 -95z m2953 42 c7 -35 12 -129 12 -209 0 -122 -3 -159 -24 -234
-13 -48 -21 -94 -18 -102 3 -8 1 -14 -3 -14 -12 0 -11 -51 0 -69 7 -10 4 -12
-13 -6 -22 7 -30 -8 -10 -20 6 -4 8 -13 5 -21 -3 -8 -1 -14 5 -14 6 0 6 -6 1
-17 -5 -10 -7 -24 -4 -32 2 -8 0 -11 -5 -8 -6 4 -15 -5 -22 -19 -16 -36 -14
-40 8 -13 l19 24 -5 -28 c-3 -15 -9 -27 -14 -27 -5 0 -6 -7 -3 -15 4 -8 1 -15
-6 -15 -7 0 -9 -8 -5 -19 4 -13 0 -23 -12 -30 -16 -9 -16 -12 -3 -21 12 -7 8
-10 -17 -10 -18 0 -33 -2 -33 -4 0 -2 -3 -13 -6 -23 -5 -15 -4 -15 5 -3 5 8
19 16 31 16 22 1 24 -4 10 -26 -8 -12 -10 -12 -10 -1 0 8 -3 11 -7 7 -12 -11
-12 -40 -1 -53 7 -9 7 -13 -1 -13 -6 0 -11 5 -11 11 0 6 -5 9 -11 7 -6 -2 -9
-6 -7 -9 2 -3 -3 -13 -11 -22 -7 -10 -10 -17 -6 -17 5 0 -2 -8 -14 -19 -17
-15 -18 -20 -7 -24 8 -3 17 1 20 9 3 9 10 13 16 9 5 -3 1 -14 -10 -25 -11 -11
-20 -25 -20 -31 0 -5 -5 -7 -12 -3 -8 5 -9 2 -5 -9 3 -9 2 -19 -2 -22 -5 -2
-11 5 -15 18 -3 14 -13 23 -25 23 -11 0 -17 -4 -15 -8 3 -4 12 -8 20 -8 18 0
18 -10 -1 -37 -10 -14 -12 -24 -5 -28 5 -3 10 1 10 9 0 9 7 16 15 16 14 0 13
-3 -2 -24 -10 -13 -19 -20 -21 -16 -2 5 -10 6 -18 3 -7 -3 -11 -9 -8 -14 3 -5
0 -9 -5 -9 -6 0 -11 5 -11 12 0 6 -3 8 -6 5 -4 -4 -1 -13 6 -22 10 -12 7 -18
-19 -32 -29 -17 -40 -33 -23 -33 5 0 9 -7 9 -15 0 -18 -14 -20 -20 -2 -2 6
-11 -3 -21 -21 -9 -18 -14 -37 -11 -43 4 -5 1 -8 -6 -7 -7 2 -14 -6 -16 -17
-1 -11 0 -14 3 -7 3 6 15 12 27 12 20 -1 20 -2 5 -11 -10 -5 -18 -17 -18 -26
0 -9 -6 -13 -15 -9 -24 9 -45 -4 -45 -29 0 -17 -8 -26 -30 -34 -16 -5 -30 -17
-30 -25 0 -9 -4 -16 -10 -16 -5 0 -10 -7 -10 -15 0 -8 -7 -15 -16 -15 -12 0
-15 -7 -12 -25 3 -13 1 -22 -4 -19 -4 3 -16 -12 -25 -33 -9 -21 -18 -32 -20
-26 -6 17 -27 -4 -35 -34 -8 -30 10 -30 22 0 8 18 10 19 7 2 -1 -11 -12 -25
-25 -31 -33 -17 -36 -22 -21 -40 12 -15 11 -16 -9 -10 -23 8 -32 -8 -9 -18 6
-3 0 -3 -14 0 -15 3 -30 1 -33 -5 -4 -5 -12 -8 -19 -6 -16 7 -36 -39 -26 -58
6 -10 3 -19 -9 -28 -14 -11 -15 -11 -5 0 13 15 7 41 -9 41 -6 0 -8 -6 -5 -14
3 -8 -5 -18 -19 -25 -34 -15 -44 -14 -37 5 3 8 12 13 20 10 8 -3 12 -2 8 3 -3
5 1 12 7 14 10 4 9 8 -2 16 -8 6 -19 11 -25 11 -5 0 -4 -4 4 -9 11 -7 7 -15
-19 -40 -18 -16 -38 -27 -43 -24 -5 3 -6 -3 -2 -16 4 -12 2 -21 -4 -21 -6 0
-11 -7 -11 -16 0 -14 2 -15 18 -3 15 13 16 12 3 -3 -7 -10 -17 -15 -22 -12 -5
3 -9 -1 -9 -8 0 -8 -3 -9 -8 -2 -4 5 -17 10 -30 10 -17 0 -25 -7 -29 -28 -6
-29 -17 -36 -28 -18 -3 6 -11 10 -17 10 -6 0 -4 -8 5 -18 10 -10 17 -23 17
-28 0 -5 -4 -4 -8 3 -4 7 -17 10 -30 7 -16 -5 -19 -10 -13 -23 10 -18 4 -41
-11 -41 -5 0 -6 9 -3 20 4 12 2 20 -5 20 -6 0 -9 -3 -7 -7 9 -15 -13 -55 -27
-50 -7 3 -19 0 -25 -6 -9 -9 -14 -8 -21 3 -5 8 -10 10 -10 4 0 -5 5 -15 10
-20 12 -12 3 -44 -11 -44 -4 0 -6 -8 -3 -17 5 -14 4 -15 -4 -4 -11 16 -5 41
10 41 5 0 7 4 3 10 -3 5 -14 2 -25 -7 -10 -9 -17 -19 -16 -22 2 -3 -3 -13 -12
-21 -14 -13 -15 -12 -9 4 5 12 3 16 -5 13 -7 -2 -13 -14 -12 -25 0 -17 -2 -19
-13 -10 -16 13 -21 9 -26 -20 -2 -12 -7 -25 -11 -29 -4 -5 -7 -3 -6 2 5 23 -1
46 -10 40 -5 -3 -6 -13 -3 -22 5 -13 2 -15 -11 -10 -14 6 -16 3 -11 -16 4 -14
3 -18 -3 -9 -12 18 -45 4 -37 -16 4 -12 0 -11 -17 4 -19 16 -20 16 -9 1 10
-13 11 -21 3 -29 -6 -6 -9 -16 -8 -22 2 -6 1 -7 -2 -2 -2 4 -8 2 -13 -5 -7
-12 -9 -11 -9 1 0 13 -1 13 -10 0 -6 -10 -10 -11 -10 -2 0 6 -4 12 -10 12 -5
0 -10 -6 -10 -14 0 -9 -7 -12 -20 -9 -16 4 -19 2 -13 -13 6 -18 6 -18 -15 0
-24 21 -31 6 -7 -17 13 -13 12 -16 -2 -22 -10 -3 -14 -3 -11 1 10 9 -15 32
-29 27 -7 -3 -13 0 -13 6 0 6 -5 11 -11 11 -8 0 -8 -4 -2 -12 6 -7 13 -23 16
-36 4 -18 3 -21 -7 -13 -7 6 -15 8 -19 5 -3 -3 -3 5 -1 18 5 22 5 22 -10 4
-15 -18 -16 -18 -16 -2 0 9 -4 15 -10 11 -5 -3 -6 -13 -3 -23 6 -15 5 -15 -10
-3 -15 12 -17 11 -17 -3 0 -9 -5 -16 -11 -16 -6 0 -9 -7 -5 -15 3 -8 1 -15 -4
-15 -6 0 -10 5 -10 10 0 6 -5 10 -11 10 -6 0 -9 -7 -5 -15 7 -18 -5 -20 -23
-2 -10 9 -15 9 -18 0 -2 -7 -10 -10 -17 -7 -9 4 -11 -4 -8 -28 4 -32 3 -32
-12 -13 -15 19 -15 19 -17 -10 -1 -24 -3 -25 -6 -8 -4 22 -6 22 -39 8 -20 -8
-38 -14 -42 -14 -25 4 -42 -3 -43 -18 0 -11 -3 -13 -6 -5 -7 19 -31 14 -43 -8
-6 -11 -16 -20 -23 -20 -8 0 -8 3 2 9 8 5 9 11 3 15 -5 3 -15 0 -21 -8 -7 -8
-21 -12 -31 -9 -13 3 -20 0 -20 -8 0 -9 -3 -10 -8 -4 -8 12 -42 16 -42 5 0
-14 -58 -28 -127 -31 -24 -1 -43 -4 -43 -8 0 -3 -17 -7 -38 -8 -25 -1 -43 -9
-56 -25 l-19 -23 7 25 c6 23 6 23 -7 8 -17 -21 -31 -24 -24 -5 3 8 -1 14 -10
14 -10 0 -13 -7 -8 -25 5 -22 5 -23 -10 -8 -9 9 -13 21 -9 27 5 8 3 9 -5 4 -7
-4 -10 -17 -7 -30 4 -15 0 -27 -12 -36 -15 -13 -16 -12 -4 3 8 9 11 22 7 28
-7 12 -58 14 -69 2 -7 -6 -56 -11 -56 -5 0 1 12 10 28 18 15 9 18 13 7 9 -11
-4 -28 -7 -37 -8 -10 0 -18 -6 -18 -13 0 -7 -4 -13 -9 -13 -5 0 -7 9 -4 20 3
12 0 20 -6 20 -7 0 -10 -4 -6 -9 11 -18 -16 -23 -29 -5 -9 11 -19 15 -31 10
-10 -4 -21 -2 -24 3 -4 5 -18 11 -31 13 -14 2 -31 7 -37 11 -9 5 -13 2 -13 -8
0 -15 -1 -15 -16 -1 -16 17 -35 21 -33 9 3 -20 -2 -34 -11 -28 -5 3 -7 12 -3
20 3 8 0 15 -6 15 -6 0 -11 -6 -12 -12 0 -10 -2 -10 -6 0 -2 6 -11 12 -19 12
-9 0 -13 4 -10 9 3 5 -2 8 -12 7 -9 0 -20 -8 -24 -16 -5 -12 -7 -12 -7 3 -1
22 -18 22 -24 0 -3 -13 -5 -12 -6 5 0 13 -5 20 -11 17 -5 -3 -20 3 -32 14 -26
25 -68 28 -68 5 0 -8 -5 -12 -10 -9 -6 4 -8 11 -5 16 4 5 1 9 -5 9 -6 0 -18 7
-27 15 -8 8 -19 13 -24 10 -5 -4 -9 -2 -9 3 0 5 -14 12 -30 15 -51 10 -57 12
-74 26 -14 12 -16 11 -17 -5 -1 -17 -2 -17 -6 -1 -2 9 -9 17 -15 17 -5 0 -23
9 -38 20 -21 15 -30 17 -33 8 -3 -7 -6 -5 -6 6 -1 18 -2 18 -20 -3 -12 -13
-22 -18 -26 -11 -3 5 -1 10 4 10 6 0 11 9 11 20 0 34 -16 22 -29 -21 -7 -23
-14 -39 -17 -36 -2 2 0 16 6 31 10 28 13 74 3 48 -4 -10 -8 -9 -19 5 -13 17
-13 17 -14 -4 0 -12 -5 -25 -12 -29 -8 -5 -9 -2 -5 9 3 9 2 27 -3 39 -7 18 -9
19 -9 6 -1 -10 -6 -18 -12 -18 -6 0 -9 7 -6 15 4 8 2 17 -3 20 -6 4 -10 1 -10
-4 0 -6 -5 -11 -11 -11 -6 0 -8 7 -5 16 6 15 4 15 -10 3 -16 -13 -17 -11 -11
16 3 17 4 24 1 18 -9 -22 -27 -14 -21 8 4 16 3 19 -5 11 -6 -6 -17 -8 -24 -5
-8 3 -14 -1 -14 -11 0 -9 -5 -16 -10 -16 -6 0 -8 11 -4 28 4 15 3 24 -1 20 -4
-4 -16 2 -26 13 -11 13 -20 16 -24 9 -5 -8 -12 -5 -21 7 -14 17 -15 17 -9 -4
9 -32 -9 -29 -23 5 -9 20 -11 21 -8 5 3 -16 -1 -21 -14 -20 -14 1 -16 5 -9 18
12 23 11 32 -1 24 -5 -3 -10 1 -10 9 0 9 -7 16 -15 16 -8 0 -15 7 -15 15 0 8
-4 15 -10 15 -5 0 -6 -7 -3 -17 4 -11 3 -14 -5 -9 -7 4 -12 13 -12 21 0 8 -6
18 -13 22 -7 4 -21 19 -30 33 -9 13 -17 19 -17 12 0 -18 -17 -15 -24 5 -4 9
-1 20 6 25 8 4 8 8 2 8 -6 0 -19 -9 -28 -19 -17 -19 -60 -26 -49 -8 3 4 11 6
18 3 8 -3 15 5 18 20 2 13 0 24 -4 24 -5 0 -9 -7 -9 -16 0 -8 -5 -12 -11 -8
-6 3 -15 0 -20 -7 -6 -9 -7 -1 -3 21 4 27 3 31 -5 20 -10 -13 -12 -13 -21 0
-7 11 -10 12 -10 2 0 -10 -3 -10 -15 2 -8 8 -12 23 -9 33 5 16 4 16 -11 -2
-17 -20 -17 -19 -11 8 5 20 3 27 -9 27 -9 0 -15 9 -16 23 0 16 -5 10 -15 -18
-7 -22 -11 -28 -9 -13 3 14 0 37 -5 50 -10 22 -10 22 -5 -4 7 -36 -11 -37 -20
-1 -5 21 -8 24 -16 12 -8 -12 -10 -12 -19 1 -8 12 -12 13 -19 2 -12 -19 -24
14 -12 35 9 17 -23 58 -39 48 -4 -3 -11 1 -13 7 -4 10 -8 9 -16 -2 -15 -21
-27 -3 -13 20 10 16 8 20 -9 25 -13 5 -18 12 -14 22 4 12 3 13 -8 5 -8 -7 -18
-8 -22 -4 -5 4 -5 -2 -1 -12 5 -16 4 -17 -9 -6 -16 13 -21 35 -6 25 6 -3 15 4
21 15 11 20 10 21 -12 9 -13 -7 -25 -12 -28 -11 -3 1 -5 -2 -5 -7 0 -5 -3 -13
-8 -17 -4 -4 -7 0 -7 10 0 9 -4 15 -9 12 -5 -4 -17 -3 -26 0 -14 6 -14 8 -1
23 14 15 14 20 1 37 -19 25 -19 34 3 35 14 0 14 2 -3 8 -11 5 -23 7 -27 4 -7
-4 -12 21 -11 54 1 7 -4 10 -9 7 -5 -4 -8 -17 -5 -30 3 -16 0 -24 -10 -24 -10
0 -12 6 -8 20 5 14 2 20 -10 20 -9 0 -14 -3 -11 -8 2 -4 -2 -16 -10 -27 -17
-23 -18 -18 -3 24 6 17 15 31 20 31 5 0 9 5 9 10 0 18 -29 10 -35 -10 -3 -11
-10 -20 -15 -20 -5 0 0 17 12 38 17 29 19 34 5 23 -15 -12 -17 -11 -17 3 0 9
5 16 10 16 6 0 10 5 10 11 0 5 -4 8 -10 4 -5 -3 -18 0 -29 7 -15 9 -19 19 -15
38 6 24 5 24 -15 -5 l-22 -30 7 30 c4 17 11 35 16 42 6 7 4 14 -3 19 -8 4 -9
3 -5 -4 4 -7 3 -12 -1 -12 -5 0 -14 -12 -20 -27 -10 -25 -10 -23 -7 17 3 29 1
40 -5 31 -11 -17 -23 1 -15 23 4 10 1 16 -9 16 -9 0 -18 -8 -20 -17 -4 -16 -5
-16 -6 -1 0 9 6 23 14 32 19 19 19 30 0 22 -13 -4 -14 -2 -5 14 9 16 8 18 -5
14 -12 -5 -15 -1 -12 17 2 13 2 19 0 12 -2 -6 -10 -14 -17 -16 -9 -4 -11 2 -8
19 3 18 0 24 -13 24 -12 0 -16 6 -12 20 5 21 -7 28 -18 10 -3 -5 -12 -10 -18
-9 -9 0 -9 2 1 6 6 2 12 9 12 15 0 6 8 17 18 25 15 13 15 13 -6 3 -12 -6 -26
-8 -31 -5 -5 3 -12 -1 -14 -7 -3 -7 -6 -2 -6 11 -1 19 2 21 13 12 10 -8 16 -9
21 -1 3 5 -1 10 -9 10 -9 0 -16 7 -16 15 0 8 -5 15 -11 15 -5 0 -8 -4 -5 -9 3
-5 -1 -14 -8 -20 -10 -8 -16 -9 -21 -1 -3 5 -3 10 2 10 4 0 13 11 20 25 6 14
7 23 3 20 -5 -3 -16 2 -24 11 -14 13 -16 13 -16 1 0 -9 -7 -14 -17 -12 -15 2
-18 12 -16 54 1 28 -2 51 -7 51 -5 0 -7 -8 -4 -17 4 -12 -1 -9 -15 7 -11 14
-21 29 -21 34 0 6 6 2 12 -7 12 -15 14 -15 25 9 11 24 10 26 -7 21 -11 -3 -25
2 -32 12 -11 14 -11 14 2 5 8 -6 23 -9 33 -5 16 6 16 7 -3 21 -11 8 -20 24
-21 35 0 11 -3 14 -6 8 -2 -7 -11 -13 -20 -13 -12 0 -12 3 2 17 16 16 16 18
-3 34 -16 13 -18 19 -9 29 10 10 8 12 -6 7 -11 -4 -17 -1 -17 8 0 8 7 15 15
15 8 0 15 5 15 11 0 5 -4 7 -10 4 -10 -6 -14 7 -11 33 3 17 -18 15 -25 -3 -9
-22 -23 -9 -17 15 3 13 0 20 -8 20 -10 1 -9 5 4 14 16 12 16 14 1 20 -13 5
-14 9 -4 21 7 9 8 20 2 30 -10 19 -4 62 9 71 13 8 11 31 -5 46 -39 40 -63 475
-30 558 18 44 20 45 61 28 15 -6 31 -11 34 -10 7 1 69 -266 69 -300 0 -16 3
-28 8 -28 4 0 8 -22 8 -49 2 -66 35 -154 97 -259 103 -176 233 -268 462 -326
85 -21 309 -66 332 -66 19 0 20 -10 26 -142 5 -120 12 -163 41 -268 108 -391
353 -752 641 -943 178 -117 379 -200 564 -231 120 -20 337 -21 458 -1 238 39
544 190 716 354 315 300 527 769 527 1168 l0 72 48 5 c180 22 479 90 506 117
6 5 16 9 24 9 21 0 133 80 175 124 57 62 106 139 135 208 35 88 41 117 52 248
11 147 37 242 81 301 31 42 36 46 54 34 14 -8 24 -32 32 -76z m-4768 -193 c5
-22 6 -35 2 -30 -9 9 -27 83 -18 74 3 -3 10 -23 16 -44z m-478 -126 c4 0 12
-30 18 -67 31 -201 41 -273 44 -323 5 -69 9 -82 26 -96 8 -6 22 -51 32 -100
17 -87 17 -89 -2 -109 -19 -19 -19 -19 -19 2 0 33 -11 57 -20 43 -16 -26 -39
127 -26 168 4 13 3 22 -3 22 -5 0 -12 -8 -14 -17 -2 -10 -3 -6 -2 9 1 15 -2
29 -7 30 -5 2 -13 37 -19 78 -5 41 -13 100 -19 130 -5 30 -12 105 -15 165 -4
88 -3 105 6 88 7 -13 15 -23 20 -23z m5345 -85 c3 -14 3 -44 0 -67 -3 -24 -6
-52 -6 -63 -1 -11 -5 -22 -10 -25 -6 -3 -12 -42 -14 -86 -6 -98 -15 -142 -27
-122 -6 9 -10 3 -15 -19 -4 -18 -11 -33 -16 -33 -6 0 -8 -6 -5 -13 3 -7 -1
-21 -9 -31 -12 -17 -13 -14 -8 20 15 113 43 216 55 208 5 -3 9 14 10 38 2 98
18 218 30 218 5 0 11 -11 15 -25z m-3793 -62 c-7 -2 -21 -2 -30 0 -10 3 -4 5
12 5 17 0 24 -2 18 -5z m-1393 -333 c0 -5 -4 -10 -10 -10 -5 0 -10 5 -10 10 0
6 5 10 10 10 6 0 10 -4 10 -10z m5054 -15 c3 -8 1 -15 -4 -15 -6 0 -10 7 -10
15 0 8 2 15 4 15 2 0 6 -7 10 -15z m-14 -65 c0 -5 -2 -10 -4 -10 -3 0 -8 5
-11 10 -3 6 -1 10 4 10 6 0 11 -4 11 -10z m-5020 -10 c-18 -12 -30 -13 -30 -2
0 4 10 9 22 9 18 2 20 0 8 -7z m1537 -129 c32 -6 43 -5 47 5 5 12 157 14 926
14 809 0 921 -2 926 -15 7 -16 80 -22 86 -6 3 8 178 23 178 15 0 -2 -21 -23
-46 -46 -180 -167 -385 -257 -675 -298 -159 -23 -762 -20 -939 5 -14 1 -52 6
-85 10 -92 11 -261 53 -350 87 -93 36 -210 112 -289 187 -31 28 -56 53 -56 54
0 6 241 -5 277 -12z m3408 -91 c-3 -5 -11 -10 -16 -10 -6 0 -7 5 -4 10 3 6 11
10 16 10 6 0 7 -4 4 -10z m-4824 -53 c-10 -9 -11 -8 -5 6 3 10 9 15 12 12 3
-3 0 -11 -7 -18z m4689 -117 c0 -5 -5 -10 -11 -10 -5 0 -7 5 -4 10 3 6 8 10
11 10 2 0 4 -4 4 -10z m-4578 -32 c-7 -7 -12 -8 -12 -2 0 6 3 14 7 17 3 4 9 5
12 2 2 -3 -1 -11 -7 -17z m4548 18 c0 -3 -4 -8 -10 -11 -5 -3 -10 -1 -10 4 0
6 5 11 10 11 6 0 10 -2 10 -4z m6 -51 c9 -8 11 -15 6 -15 -5 0 -15 7 -22 15
-7 8 -9 15 -6 15 4 0 14 -7 22 -15z m-4536 -5 c0 -5 -2 -10 -4 -10 -3 0 -8 5
-11 10 -3 6 -1 10 4 10 6 0 11 -4 11 -10z m4510 -12 c0 -5 -11 -8 -25 -8 -14
0 -25 4 -25 9 0 5 11 8 25 7 14 0 25 -4 25 -8z m-4490 -44 c0 -8 -5 -12 -10
-9 -6 4 -8 11 -5 16 9 14 15 11 15 -7z m4447 -46 c-3 -8 -6 -5 -6 6 -1 11 2
17 5 13 3 -3 4 -12 1 -19z m-54 -38 c-3 -11 -9 -20 -13 -20 -5 0 -6 9 -3 20 3
11 9 20 13 20 5 0 6 -9 3 -20z m17 -30 c0 -5 -5 -10 -11 -10 -5 0 -7 5 -4 10
3 6 8 10 11 10 2 0 4 -4 4 -10z m-4283 -42 c2 -16 0 -19 -6 -9 -5 8 -18 12
-30 8 -12 -3 -21 -1 -21 3 0 5 10 11 23 13 12 2 24 5 27 6 3 0 7 -9 7 -21z
m4179 -40 c-13 -19 -16 -20 -16 -5 0 20 23 50 28 36 2 -5 -4 -19 -12 -31z
m-4202 16 c3 -8 2 -12 -4 -9 -6 3 -10 10 -10 16 0 14 7 11 14 -7z m4176 -39
c0 -14 -2 -25 -4 -25 -2 0 -6 11 -8 25 -3 14 -1 25 3 25 5 0 9 -11 9 -25z m27
-37 c-3 -7 -5 -2 -5 12 0 14 2 19 5 13 2 -7 2 -19 0 -25z m-52 -8 c3 -5 2 -10
-4 -10 -5 0 -13 5 -16 10 -3 6 -2 10 4 10 5 0 13 -4 16 -10z m-4065 -57 c-11
-17 -11 -17 -6 0 3 10 6 24 7 30 0 9 2 9 5 0 3 -7 0 -20 -6 -30z m4074 21 c3
-8 2 -12 -4 -9 -6 3 -10 10 -10 16 0 14 7 11 14 -7z m47 6 c9 13 10 13 6 0 -2
-8 -10 -15 -17 -15 -7 0 -15 7 -17 15 -4 13 -3 13 6 0 10 -13 12 -13 22 0z
m-4071 -10 c0 -5 -4 -10 -10 -10 -5 0 -10 5 -10 10 0 6 5 10 10 10 6 0 10 -4
10 -10z m3982 -32 c-8 -8 -9 -4 -5 13 4 13 8 18 11 10 2 -7 -1 -18 -6 -23z
m-4132 -45 c0 -6 6 -14 13 -16 7 -3 7 -6 1 -6 -20 -2 -53 35 -51 58 l1 22 18
-23 c10 -13 18 -28 18 -35z m170 35 c0 -18 -2 -20 -9 -8 -6 8 -7 18 -5 22 9
14 14 9 14 -14z m-230 -20 c0 -6 -6 -5 -15 2 -8 7 -15 14 -15 16 0 2 7 1 15
-2 8 -4 15 -11 15 -16z m4220 12 c0 -5 -5 -10 -11 -10 -5 0 -7 5 -4 10 3 6 8
10 11 10 2 0 4 -4 4 -10z m-4196 -46 c3 -8 2 -12 -4 -9 -6 3 -10 10 -10 16 0
14 7 11 14 -7z m229 -19 c-3 -9 -8 -14 -10 -11 -3 3 -2 9 2 15 9 16 15 13 8
-4z m45 -35 c-7 -10 -14 -18 -15 -16 -6 6 9 36 18 36 5 0 4 -9 -3 -20z m72 10
c0 -5 -4 -10 -10 -10 -5 0 -10 5 -10 10 0 6 5 10 10 10 6 0 10 -4 10 -10z
m3680 -4 c0 -3 -4 -8 -10 -11 -5 -3 -10 -1 -10 4 0 6 5 11 10 11 6 0 10 -2 10
-4z m-3705 -16 c3 -5 2 -10 -4 -10 -5 0 -13 5 -16 10 -3 6 -2 10 4 10 5 0 13
-4 16 -10z m-30 -20 c3 -5 1 -10 -4 -10 -6 0 -11 5 -11 10 0 6 2 10 4 10 3 0
8 -4 11 -10z m105 -20 c0 -5 -4 -10 -10 -10 -5 0 -10 5 -10 10 0 6 5 10 10 10
6 0 10 -4 10 -10z m35 -1 c11 -16 1 -19 -13 -3 -7 8 -8 14 -3 14 5 0 13 -5 16
-11z m3475 -40 c0 -6 -4 -7 -10 -4 -5 3 -10 1 -10 -6 0 -7 -3 -10 -6 -6 -10
10 5 39 16 32 5 -3 10 -11 10 -16z m-3436 -54 c-4 -8 -8 -15 -10 -15 -2 0 -4
7 -4 15 0 8 4 15 10 15 5 0 7 -7 4 -15z m3316 -25 c0 -5 -4 -10 -10 -10 -5 0
-10 5 -10 10 0 6 5 10 10 10 6 0 10 -4 10 -10z m-3210 -10 c0 -5 -5 -10 -11
-10 -5 0 -7 5 -4 10 3 6 8 10 11 10 2 0 4 -4 4 -10z m3218 -30 c-7 -11 -15
-15 -17 -9 -2 6 3 15 10 20 20 12 21 11 7 -11z m-3158 -44 c0 -3 -4 -8 -10
-11 -5 -3 -10 -1 -10 4 0 6 5 11 10 11 6 0 10 -2 10 -4z m17 -28 c-3 -8 -6 -5
-6 6 -1 11 2 17 5 13 3 -3 4 -12 1 -19z m3090 -3 c0 -8 -4 -12 -9 -9 -4 3 -8
9 -8 15 0 5 4 9 8 9 5 0 9 -7 9 -15z m-3002 -25 c3 -5 1 -10 -4 -10 -6 0 -11
5 -11 10 0 6 2 10 4 10 3 0 8 -4 11 -10z m-25 -20 c0 -5 -5 -10 -11 -10 -5 0
-7 5 -4 10 3 6 8 10 11 10 2 0 4 -4 4 -10z m77 -6 c14 -14 14 -17 -2 -32 -16
-16 -17 -16 -10 7 6 20 4 23 -9 18 -16 -6 -22 4 -9 16 9 10 13 9 30 -9z m30
-46 c-3 -8 -6 -5 -6 6 -1 11 2 17 5 13 3 -3 4 -12 1 -19z m-43 -43 c-4 -8 -11
-15 -16 -15 -6 0 -5 6 2 15 7 8 14 15 16 15 2 0 1 -7 -2 -15z m116 -6 c0 -5
-4 -9 -10 -9 -5 0 -10 7 -10 16 0 8 5 12 10 9 6 -3 10 -10 10 -16z m2653 -4
c-3 -9 -8 -14 -10 -11 -3 3 -2 9 2 15 9 16 15 13 8 -4z m-2688 -15 c3 -5 1
-10 -4 -10 -6 0 -11 5 -11 10 0 6 2 10 4 10 3 0 8 -4 11 -10z m2652 -12 c-3
-8 -6 -5 -6 6 -1 11 2 17 5 13 3 -3 4 -12 1 -19z m-2502 -8 c3 -5 1 -10 -4
-10 -6 0 -11 5 -11 10 0 6 2 10 4 10 3 0 8 -4 11 -10z m75 -44 c0 -3 -4 -8
-10 -11 -5 -3 -10 -1 -10 4 0 6 5 11 10 11 6 0 10 -2 10 -4z m7 -38 c-3 -8 -6
-5 -6 6 -1 11 2 17 5 13 3 -3 4 -12 1 -19z m20 -30 c-3 -8 -6 -5 -6 6 -1 11 2
17 5 13 3 -3 4 -12 1 -19z m2083 -19 c0 -6 -4 -7 -10 -4 -5 3 -10 11 -10 16 0
6 5 7 10 4 6 -3 10 -11 10 -16z m58 -3 c-7 -8 -15 -12 -17 -11 -5 6 10 25 20
25 5 0 4 -6 -3 -14z m-161 -48 c-3 -7 -5 -2 -5 12 0 14 2 19 5 13 2 -7 2 -19
0 -25z m-1786 -21 c-10 -9 -11 -8 -5 6 3 10 9 15 12 12 3 -3 0 -11 -7 -18z
m1691 -9 c-7 -7 -12 -8 -12 -2 0 14 12 26 19 19 2 -3 -1 -11 -7 -17z m-1607
-17 c-6 -5 -25 10 -25 20 0 5 6 4 14 -3 8 -7 12 -15 11 -17z m1795 19 c0 -5
-4 -10 -10 -10 -5 0 -10 5 -10 10 0 6 5 10 10 10 6 0 10 -4 10 -10z m-1770
-34 c0 -3 -4 -8 -10 -11 -5 -3 -10 -1 -10 4 0 6 5 11 10 11 6 0 10 -2 10 -4z
m1490 -6 c0 -5 -4 -10 -10 -10 -5 0 -10 5 -10 10 0 6 5 10 10 10 6 0 10 -4 10
-10z m-60 -20 c0 -5 -4 -10 -10 -10 -5 0 -10 5 -10 10 0 6 5 10 10 10 6 0 10
-4 10 -10z m96 -13 c4 -3 -4 -4 -16 -2 -30 6 -40 16 -12 12 12 -2 24 -6 28
-10z m74 3 c0 -5 -2 -10 -4 -10 -3 0 -8 5 -11 10 -3 6 -1 10 4 10 6 0 11 -4
11 -10z m-35 -10 c3 -5 1 -10 -4 -10 -6 0 -11 5 -11 10 0 6 2 10 4 10 3 0 8
-4 11 -10z m-447 -75 c-3 -3 -9 2 -12 12 -6 14 -5 15 5 6 7 -7 10 -15 7 -18z
m-638 9 c0 -15 -21 -42 -37 -48 -17 -6 -17 -5 0 8 9 7 17 21 17 30 0 9 5 16
10 16 6 0 10 -3 10 -6z m515 -14 c3 -5 2 -10 -4 -10 -5 0 -13 5 -16 10 -3 6
-2 10 4 10 5 0 13 -4 16 -10z m-574 -23 c-10 -9 -11 -8 -5 6 3 10 9 15 12 12
3 -3 0 -11 -7 -18z m199 13 c0 -5 -4 -10 -10 -10 -5 0 -10 5 -10 10 0 6 5 10
10 10 6 0 10 -4 10 -10z m200 -20 c0 -5 -2 -10 -4 -10 -3 0 -8 5 -11 10 -3 6
-1 10 4 10 6 0 11 -4 11 -10z m-180 -16 c0 -8 -5 -12 -10 -9 -6 4 -8 11 -5 16
9 14 15 11 15 -7z m100 -4 c0 -5 -5 -10 -11 -10 -5 0 -7 5 -4 10 3 6 8 10 11
10 2 0 4 -4 4 -10z"/>
<path d="M4760 7335 c7 -8 17 -15 22 -15 6 0 5 7 -2 15 -7 8 -17 15 -22 15 -6
0 -5 -7 2 -15z"/>
<path d="M4840 7270 c0 -5 5 -10 11 -10 5 0 7 5 4 10 -3 6 -8 10 -11 10 -2 0
-4 -4 -4 -10z"/>
<path d="M5055 7130 c3 -5 11 -10 16 -10 6 0 7 5 4 10 -3 6 -11 10 -16 10 -6
0 -7 -4 -4 -10z"/>
<path d="M5152 7060 c7 -11 19 -22 28 -25 8 -4 4 5 -9 19 -29 31 -36 33 -19 6z"/>
<path d="M5200 7010 c0 -5 7 -10 16 -10 8 0 12 5 9 10 -3 6 -10 10 -16 10 -5
0 -9 -4 -9 -10z"/>
<path d="M5260 6970 c0 -5 5 -10 11 -10 5 0 7 5 4 10 -3 6 -8 10 -11 10 -2 0
-4 -4 -4 -10z"/>
<path d="M4170 7031 c8 -4 29 -11 45 -15 19 -4 25 -3 15 3 -8 4 -28 11 -45 15
-19 4 -25 3 -15 -3z"/>
<path d="M3025 6650 c-61 -6 -55 -7 55 -8 84 -1 120 2 110 8 -16 10 -53 10
-165 0z"/>
<path d="M3288 6643 c6 -2 18 -2 25 0 6 3 1 5 -13 5 -14 0 -19 -2 -12 -5z"/>
<path d="M3588 6613 c7 -3 16 -2 19 1 4 3 -2 6 -13 5 -11 0 -14 -3 -6 -6z"/>
<path d="M3683 6603 c15 -2 39 -2 55 0 15 2 2 4 -28 4 -30 0 -43 -2 -27 -4z"/>
<path d="M2503 6333 c9 -2 23 -2 30 0 6 3 -1 5 -18 5 -16 0 -22 -2 -12 -5z"/>
<path d="M1820 6210 c0 -5 5 -10 10 -10 6 0 10 5 10 10 0 6 -4 10 -10 10 -5 0
-10 -4 -10 -10z"/>
<path d="M5514 5385 c71 -35 131 -63 133 -61 2 1 -14 11 -34 22 -21 10 -40 21
-43 24 -18 18 -96 62 -114 64 -11 2 -32 6 -46 9 -14 4 33 -22 104 -58z"/>
<path d="M2790 5024 c-84 -18 -174 -50 -230 -82 -91 -52 -220 -195 -220 -244
0 -30 25 -31 92 -3 242 100 316 118 503 118 154 -1 271 -21 388 -67 109 -44
133 -31 101 52 -35 92 -167 192 -299 227 -74 19 -246 19 -335 -1z"/>
<path d="M5155 5034 c-88 -21 -118 -31 -178 -62 -79 -41 -157 -120 -182 -186
-20 -51 -15 -76 14 -76 11 0 60 16 110 35 126 48 229 65 386 65 187 0 300 -25
463 -103 114 -54 135 -42 88 51 -48 94 -193 204 -330 249 -68 22 -102 27 -216
29 -74 1 -144 1 -155 -2z"/>
<path d="M2771 3945 c-124 -35 -200 -99 -255 -214 -29 -61 -31 -74 -31 -171 0
-96 3 -110 29 -165 82 -167 270 -256 446 -211 122 31 207 106 269 235 32 68
36 84 35 156 0 115 -28 181 -113 266 -49 49 -81 71 -124 88 -78 29 -186 35
-256 16z m49 -107 c54 -37 75 -73 74 -128 -1 -64 -37 -120 -98 -149 -57 -28
-104 -21 -154 23 -86 76 -81 196 11 255 45 29 123 28 167 -1z"/>
<path d="M5238 3946 c-148 -43 -252 -161 -279 -315 -29 -164 67 -348 218 -419
51 -23 70 -27 163 -27 98 0 109 2 171 32 79 39 150 111 187 191 24 51 27 69
27 163 0 100 -2 108 -34 173 -44 85 -120 157 -199 186 -71 27 -190 35 -254 16z
m54 -104 c47 -31 71 -71 76 -126 5 -68 -23 -111 -99 -149 -51 -25 -61 -27 -96
-18 -64 17 -113 89 -113 163 0 44 40 107 81 129 44 24 116 24 151 1z"/>
<path d="M5398 2933 c12 -2 32 -2 45 0 12 2 2 4 -23 4 -25 0 -35 -2 -22 -4z"/>
<path d="M6605 2720 c3 -5 8 -10 11 -10 2 0 4 5 4 10 0 6 -5 10 -11 10 -5 0
-7 -4 -4 -10z"/>
<path d="M6617 2693 c-4 -3 -7 -11 -7 -17 0 -6 5 -5 12 2 6 6 9 14 7 17 -3 3
-9 2 -12 -2z"/>
<path d="M1639 2543 c-13 -16 -12 -17 4 -4 9 7 17 15 17 17 0 8 -8 3 -21 -13z"/>
<path d="M6550 2500 c0 -5 5 -10 11 -10 5 0 7 5 4 10 -3 6 -8 10 -11 10 -2 0
-4 -4 -4 -10z"/>
<path d="M1673 2475 c0 -8 4 -15 9 -15 4 0 8 4 8 9 0 6 -4 12 -8 15 -5 3 -9
-1 -9 -9z"/>
<path d="M6480 2340 c0 -5 5 -10 10 -10 6 0 10 5 10 10 0 6 -4 10 -10 10 -5 0
-10 -4 -10 -10z"/>
<path d="M1730 2330 c-8 -5 -10 -10 -5 -10 6 0 17 5 25 10 8 5 11 10 5 10 -5
0 -17 -5 -25 -10z"/>
<path d="M1704 2285 c-1 -14 2 -22 7 -19 11 6 12 44 2 44 -5 0 -9 -11 -9 -25z"/>
<path d="M1756 2278 c3 -4 9 -8 15 -8 5 0 9 4 9 8 0 5 -7 9 -15 9 -8 0 -12 -4
-9 -9z"/>
<path d="M6475 2280 c-3 -5 1 -10 10 -10 9 0 13 5 10 10 -3 6 -8 10 -10 10 -2
0 -7 -4 -10 -10z"/>
<path d="M6370 2130 c0 -5 5 -10 10 -10 6 0 10 5 10 10 0 6 -4 10 -10 10 -5 0
-10 -4 -10 -10z"/>
<path d="M6310 2070 c-6 -11 -9 -20 -8 -20 2 0 11 9 21 20 9 11 13 20 7 20 -5
0 -14 -9 -20 -20z"/>
<path d="M6220 1900 c-9 -16 -8 -18 5 -14 8 4 15 12 15 20 0 20 -7 17 -20 -6z"/>
<path d="M2025 1880 c3 -5 8 -10 11 -10 2 0 4 5 4 10 0 6 -5 10 -11 10 -5 0
-7 -4 -4 -10z"/>
<path d="M6140 1825 c0 -8 4 -15 10 -15 5 0 7 7 4 15 -4 8 -8 15 -10 15 -2 0
-4 -7 -4 -15z"/>
<path d="M6110 1779 c0 -5 5 -7 10 -4 6 3 10 8 10 11 0 2 -4 4 -10 4 -5 0 -10
-5 -10 -11z"/>
<path d="M6042 1703 c-6 -2 -9 -9 -6 -14 3 -6 0 -16 -6 -24 -8 -9 -8 -15 -2
-15 5 0 15 14 21 30 5 17 9 30 8 29 -1 0 -8 -3 -15 -6z"/>
<path d="M2176 1672 c-3 -5 1 -15 9 -22 16 -14 20 -3 6 19 -5 8 -11 9 -15 3z"/>
<path d="M2173 1617 c-3 -5 -3 -10 -1 -12 7 -7 48 7 48 16 0 10 -40 7 -47 -4z"/>
<path d="M6003 1615 c-7 -8 -21 -18 -30 -24 -10 -5 -15 -13 -11 -16 8 -8 55
24 62 43 7 16 -6 15 -21 -3z"/>
<path d="M5910 1540 c-8 -5 -12 -11 -9 -14 2 -3 11 -1 19 4 8 5 12 11 9 14 -2
3 -11 1 -19 -4z"/>
<path d="M2420 1450 c0 -5 5 -10 11 -10 5 0 7 5 4 10 -3 6 -8 10 -11 10 -2 0
-4 -4 -4 -10z"/>
<path d="M5575 1260 c3 -5 8 -10 11 -10 2 0 4 5 4 10 0 6 -5 10 -11 10 -5 0
-7 -4 -4 -10z"/>
<path d="M5266 1035 c-3 -8 -1 -15 4 -15 6 0 10 7 10 15 0 8 -2 15 -4 15 -2 0
-6 -7 -10 -15z"/>
<path d="M1432 2890 c0 -14 2 -19 5 -12 2 6 2 18 0 25 -3 6 -5 1 -5 -13z"/>
<path d="M4618 2113 c7 -3 16 -2 19 1 4 3 -2 6 -13 5 -11 0 -14 -3 -6 -6z"/>
<path d="M3660 2107 c18 -19 145 -27 420 -27 352 1 486 6 509 21 12 8 5 9 -26
5 -61 -9 -825 -8 -870 0 -21 4 -36 4 -33 1z"/>
</g>
</svg>
